<svg xmlns="http://www.w3.org/2000/svg" viewBox="125 260 774 540" role="img" aria-label="Хоббика"><rect x="125" y="260" width="774" height="540" fill="#000"/><path fill="#fbc409" d="M385,287 404,288 404,289 413,290 413,291 422,293 422,294 424,294 424,295 427,295 427,296 433,298 434,300 438,301 439,303 441,303 443,306 445,306 445,307 446,307 449,311 451,311 451,312 455,315 455,317 460,321 460,323 463,325 463,327 465,328 466,332 468,333 468,335 469,335 469,337 470,337 470,339 471,339 471,342 472,342 472,344 473,344 473,347 474,347 474,350 475,350 475,354 476,354 476,358 477,358 477,364 478,364 479,375 480,375 480,379 481,379 481,383 482,383 482,387 483,387 483,390 484,390 484,394 485,394 486,400 487,400 487,402 488,402 488,405 489,405 489,408 490,408 490,410 491,410 491,412 492,412 492,415 493,415 493,417 494,417 494,419 495,419 495,421 496,421 496,423 497,423 497,425 498,425 498,427 499,427 499,430 500,430 500,432 501,432 501,434 502,434 502,436 503,436 503,438 504,438 504,440 505,440 505,442 506,442 506,444 507,444 508,447 509,447 509,445 510,445 510,442 511,442 511,440 512,440 512,438 513,438 513,436 514,436 514,434 515,434 515,432 516,432 516,430 517,430 517,428 518,428 518,426 519,426 519,424 520,424 520,422 521,422 521,420 522,420 522,417 523,417 523,415 524,415 524,413 525,413 525,411 526,411 526,408 527,408 527,406 528,406 528,403 529,403 529,400 530,400 530,397 531,397 531,394 532,394 532,391 533,391 533,388 534,388 534,384 535,384 535,380 536,380 536,376 537,376 537,371 538,371 538,366 539,366 539,359 540,359 540,355 541,355 541,351 542,351 544,342 545,342 545,340 546,340 546,338 547,338 547,336 548,336 550,330 552,329 552,327 554,326 554,324 557,322 557,320 558,320 570,307 572,307 574,304 576,304 576,303 579,302 580,300 582,300 582,299 584,299 585,297 590,296 590,295 592,295 592,294 594,294 594,293 597,293 597,292 600,292 600,291 603,291 603,290 607,290 607,289 622,288 622,287 631,287 631,288 646,289 646,290 650,290 650,291 654,291 654,292 657,292 657,293 659,293 659,294 662,294 662,295 664,295 664,296 666,296 666,297 672,299 673,301 675,301 675,302 678,303 679,305 681,305 685,310 687,310 687,311 693,316 693,318 697,321 697,323 698,323 698,324 700,325 700,327 702,328 703,332 705,333 705,335 706,335 706,337 707,337 707,339 708,339 708,342 709,342 709,344 710,344 710,347 711,347 711,350 712,350 712,353 713,353 713,358 714,358 714,363 715,363 715,388 714,388 714,394 713,394 713,398 712,398 711,405 710,405 710,407 709,407 709,410 708,410 708,412 707,412 707,414 706,414 706,416 705,416 703,422 702,422 701,425 699,426 699,428 695,431 695,433 694,433 685,443 683,443 683,444 682,444 680,447 678,447 676,450 674,450 674,451 671,452 670,454 668,454 668,455 666,455 666,456 664,456 664,457 662,457 662,458 660,458 660,459 658,459 658,460 656,460 656,461 654,461 654,462 652,462 652,463 650,463 650,464 644,466 643,468 637,470 636,472 632,473 631,475 629,475 628,477 626,477 625,479 623,479 622,481 620,481 619,483 617,483 615,486 613,486 610,490 608,490 605,494 603,494 597,501 595,501 582,515 580,515 580,516 568,527 568,529 570,529 570,530 571,530 584,544 586,544 598,557 600,557 604,562 606,562 610,567 612,567 612,568 613,568 614,570 616,570 618,573 620,573 621,575 623,575 624,577 626,577 626,578 629,579 630,581 634,582 635,584 639,585 640,587 642,587 642,588 644,588 644,589 646,589 646,590 648,590 648,591 650,591 650,592 652,592 652,593 654,593 654,594 656,594 656,595 658,595 658,596 660,596 660,597 666,599 667,601 671,602 672,604 674,604 675,606 677,606 679,609 681,609 685,614 687,614 687,615 693,620 693,622 698,626 698,628 700,629 700,631 701,631 702,634 704,635 704,637 705,637 705,639 706,639 706,641 707,641 707,643 708,643 708,645 709,645 709,648 710,648 710,651 711,651 711,654 712,654 712,657 713,657 713,661 714,661 714,667 715,667 715,692 714,692 713,702 712,702 712,705 711,705 709,714 708,714 708,716 707,716 707,718 706,718 704,724 702,725 701,729 698,731 698,733 694,736 694,738 693,738 685,747 683,747 680,751 678,751 678,752 675,753 674,755 672,755 672,756 668,757 667,759 664,759 664,760 662,760 662,761 660,761 660,762 657,762 657,763 654,763 654,764 651,764 651,765 647,765 647,766 635,767 635,768 619,768 619,767 606,766 606,765 602,765 602,764 596,763 596,762 594,762 594,761 591,761 591,760 589,760 589,759 587,759 587,758 581,756 580,754 578,754 577,752 575,752 573,749 571,749 567,744 565,744 565,743 562,741 562,739 561,739 561,738 556,734 556,732 553,730 552,726 550,725 550,723 549,723 549,721 548,721 548,719 547,719 547,717 546,717 546,715 545,715 545,713 544,713 544,710 543,710 543,708 542,708 542,704 541,704 541,701 540,701 537,679 536,679 534,667 533,667 533,664 532,664 532,661 531,661 529,652 528,652 528,650 527,650 527,647 526,647 526,645 525,645 525,642 524,642 524,640 523,640 523,638 522,638 522,636 521,636 521,634 520,634 520,631 519,631 519,629 518,629 518,627 517,627 517,625 516,625 516,623 515,623 515,621 514,621 514,619 513,619 513,617 512,617 512,615 511,615 509,609 507,609 507,611 506,611 506,613 505,613 505,615 504,615 504,617 503,617 503,620 502,620 502,622 501,622 501,624 500,624 500,626 499,626 499,628 498,628 498,630 497,630 497,632 496,632 496,634 495,634 495,636 494,636 494,638 493,638 493,641 492,641 492,643 491,643 491,645 490,645 490,648 489,648 489,650 488,650 487,656 486,656 486,658 485,658 485,662 484,662 484,665 483,665 483,668 482,668 482,672 481,672 481,676 480,676 480,680 479,680 476,702 475,702 473,711 472,711 472,713 471,713 471,716 470,716 470,718 469,718 467,724 465,725 465,727 464,727 463,730 461,731 461,733 457,736 457,738 456,738 449,746 447,746 444,750 442,750 440,753 436,754 435,756 433,756 433,757 431,757 431,758 429,758 429,759 427,759 427,760 425,760 425,761 423,761 423,762 420,762 420,763 417,763 417,764 414,764 414,765 410,765 410,766 405,766 405,767 382,768 382,767 369,766 369,765 365,765 365,764 356,762 356,761 354,761 354,760 352,760 352,759 350,759 350,758 344,756 343,754 341,754 341,753 338,752 337,750 335,750 331,745 329,745 329,744 324,740 324,738 319,734 319,732 318,732 318,731 316,730 316,728 314,727 314,725 313,725 312,721 310,720 309,715 308,715 308,713 307,713 307,711 306,711 306,708 305,708 305,705 304,705 304,701 303,701 302,690 301,690 301,669 302,669 302,662 303,662 303,658 304,658 304,654 305,654 306,648 307,648 307,646 308,646 308,644 309,644 309,641 310,641 310,639 312,638 314,632 316,631 316,629 319,627 319,625 320,625 334,610 336,610 336,609 337,609 338,607 340,607 342,604 344,604 344,603 346,603 347,601 351,600 352,598 354,598 354,597 356,597 356,596 358,596 358,595 361,595 361,594 363,594 363,593 369,591 370,589 372,589 372,588 378,586 379,584 383,583 384,581 386,581 387,579 391,578 393,575 395,575 396,573 398,573 399,571 401,571 404,567 406,567 406,566 407,566 408,564 410,564 414,559 416,559 427,547 429,547 442,533 444,533 444,532 448,529 448,527 447,527 433,512 431,512 419,499 417,499 412,493 410,493 410,492 409,492 407,489 405,489 402,485 400,485 400,484 397,483 395,480 393,480 393,479 390,478 389,476 385,475 385,474 382,473 381,471 375,469 374,467 372,467 372,466 370,466 370,465 368,465 368,464 366,464 366,463 364,463 364,462 362,462 362,461 360,461 360,460 358,460 358,459 356,459 356,458 354,458 354,457 348,455 347,453 345,453 344,451 342,451 341,449 339,449 338,447 336,447 331,441 329,441 329,440 323,435 323,433 318,429 318,427 316,426 316,424 314,423 313,419 311,418 311,416 310,416 310,414 309,414 309,412 308,412 308,409 307,409 306,404 305,404 305,401 304,401 304,397 303,397 303,393 302,393 302,387 301,387 301,365 302,365 302,359 303,359 303,354 304,354 304,351 305,351 307,342 308,342 308,340 309,340 309,338 310,338 310,336 311,336 313,330 314,330 315,327 317,326 317,324 320,322 320,320 321,320 334,306 336,306 338,303 340,303 341,301 345,300 346,298 348,298 348,297 350,297 350,296 352,296 352,295 355,295 355,294 357,294 357,293 366,291 366,290 375,289 375,288 385,288 385,287Z M236,439 254,440 254,441 263,442 263,443 266,443 266,444 275,446 275,447 277,447 277,448 279,448 279,449 285,451 286,453 288,453 288,454 291,455 292,457 294,457 298,462 300,462 300,463 307,469 307,471 311,474 311,476 313,477 313,479 314,479 315,482 317,483 317,485 318,485 318,487 319,487 319,489 320,489 320,491 321,491 321,493 322,493 322,496 323,496 323,498 324,498 325,505 326,505 326,509 327,509 327,515 328,515 328,541 327,541 327,546 326,546 325,554 324,554 324,557 323,557 323,559 322,559 322,562 321,562 321,564 320,564 320,566 319,566 319,568 318,568 316,574 314,575 314,577 312,578 312,580 308,583 308,585 307,585 298,595 296,595 293,599 291,599 291,600 288,601 287,603 281,605 280,607 277,607 277,608 275,608 275,609 273,609 273,610 270,610 270,611 267,611 267,612 264,612 264,613 255,614 255,615 247,615 247,616 232,616 232,615 224,615 224,614 219,614 219,613 216,613 216,612 212,612 212,611 209,611 209,610 207,610 207,609 204,609 204,608 202,608 202,607 200,607 200,606 194,604 193,602 191,602 190,600 188,600 186,597 184,597 179,591 177,591 177,590 175,589 175,587 169,582 169,580 167,579 167,577 166,577 165,574 163,573 163,571 162,571 162,569 161,569 161,567 160,567 160,565 159,565 159,563 158,563 158,561 157,561 157,558 156,558 156,555 155,555 155,552 154,552 154,548 153,548 153,544 152,544 152,537 151,537 151,518 152,518 152,511 153,511 154,503 155,503 157,494 158,494 158,492 159,492 159,490 160,490 160,488 161,488 163,482 165,481 165,479 167,478 167,476 170,474 170,472 171,472 183,459 185,459 187,456 189,456 189,455 192,454 193,452 197,451 198,449 203,448 203,447 205,447 205,446 207,446 207,445 216,443 216,442 221,442 221,441 226,441 226,440 236,440 236,439Z M773,439 790,440 790,441 800,442 800,443 809,445 809,446 811,446 811,447 814,447 814,448 820,450 821,452 825,453 826,455 828,455 830,458 832,458 832,459 833,459 837,464 839,464 839,465 841,466 841,468 847,473 847,475 850,477 850,479 852,480 853,484 855,485 855,487 856,487 856,489 857,489 857,492 858,492 858,494 859,494 859,496 860,496 861,502 862,502 862,506 863,506 863,510 864,510 864,516 865,516 865,539 864,539 864,545 863,545 862,553 861,553 860,559 859,559 859,561 858,561 858,564 857,564 857,566 856,566 854,572 852,573 852,575 850,576 850,578 848,579 848,581 844,584 844,586 843,586 836,594 834,594 831,598 829,598 827,601 823,602 822,604 820,604 820,605 818,605 818,606 816,606 816,607 814,607 814,608 812,608 812,609 810,609 810,610 801,612 801,613 792,614 792,615 784,615 784,616 769,616 769,615 761,615 761,614 752,613 752,612 743,610 743,609 741,609 741,608 739,608 739,607 737,607 737,606 731,604 730,602 728,602 728,601 726,601 724,598 722,598 719,594 717,594 717,593 710,587 710,585 705,581 705,579 704,579 703,576 701,575 700,571 698,570 698,568 697,568 697,566 696,566 696,564 695,564 695,561 694,561 694,559 693,559 692,553 691,553 691,549 690,549 690,545 689,545 689,539 688,539 688,516 689,516 689,510 690,510 691,502 692,502 692,499 693,499 693,496 694,496 694,494 695,494 695,492 696,492 697,487 699,486 701,480 702,480 703,477 706,475 706,473 707,473 721,458 723,458 725,455 727,455 728,453 732,452 733,450 735,450 735,449 737,449 737,448 739,448 739,447 742,447 742,446 744,446 744,445 753,443 753,442 763,441 763,440 773,440 773,439Z"/></svg>